<?xml version="1.0" encoding="UTF-8"?>
<!DOCTYPE svg PUBLIC "-//W3C//DTD SVG 1.1//EN" "http://www.w3.org/Graphics/SVG/1.1/DTD/svg11.dtd">
<!-- Creator: CorelDRAW 2018 (64 Bit Versão de avaliação) -->
<svg xmlns="http://www.w3.org/2000/svg" xml:space="preserve" width="12.2585mm" height="14.1717mm" version="1.1" style="shape-rendering:geometricPrecision; text-rendering:geometricPrecision; image-rendering:optimizeQuality; fill-rule:evenodd; clip-rule:evenodd"
viewBox="0 0 195.53 226.05"
 xmlns:xlink="http://www.w3.org/1999/xlink">
 <defs>
  <style type="text/css">
   <![CDATA[
    .fil0 {fill:#020202}
   ]]>
  </style>
 </defs>
 <g id="Camada_x0020_1">
  <metadata id="CorelCorpID_0Corel-Layer"/>
  <g id="_2561650357008">
   <path class="fil0" d="M60.52 161.21l-11.63 0.73c0.15,-3.81 0.19,-8.21 0.54,-11.8 0.23,-2.31 1.08,-2.51 2.36,-3.77l39.33 -39.41c3.25,-3.21 3.83,-2.49 2.16,-8.14 -7.24,-24.6 21.28,-45.19 42.68,-29.47 8.47,6.22 15.32,20.18 8.03,34.35 -4.88,9.48 -17.13,18.3 -32.35,13.71 -5.93,-1.79 -5.34,-0.35 -13.85,8.29 -3.35,3.4 -2.57,2.61 -8.56,3.47 -9.87,1.41 -7.12,-0.13 -10.62,13.54 -0.63,2.48 -3.22,2.26 -8.56,3.47 -6.65,1.51 -5.42,0.65 -8.51,12.57 -0.09,0.33 -0.22,0.92 -0.32,1.2 -0.04,0.12 -0.18,0.45 -0.23,0.55 -0.35,0.69 -0.05,0.26 -0.49,0.72zm9.76 -7.65c2.95,-1.19 11.6,-2.2 13.27,-3.69 2.27,-2.04 2.08,-10.69 3.97,-12.97 2.04,-1.63 8.05,-0.78 10.76,-2.08 1.65,-0.8 7.85,-7.71 9.89,-9.69 2.49,-2.41 5.65,2.15 17.67,-0.04 13.68,-2.49 23.98,-12.81 27.13,-25.65 7.03,-28.62 -24.16,-55.52 -53.7,-35.96 -4.44,2.94 -8.85,8.33 -11.46,14.53 -3.54,8.42 -2.87,13.32 -1.35,22.46 0.3,1.83 -1.26,2.58 -2.32,3.64 -1.21,1.22 -2.17,2.17 -3.39,3.39l-32.69 32.86c-7.23,7.16 -5.39,3.87 -6.19,20.14 -0.23,4.75 -1.2,8.92 4.46,8.77 4.23,-0.11 8.56,-0.45 12.84,-0.64 8.78,-0.39 6.68,1.03 11.13,-15.07z"/>
   <path class="fil0" d="M-0 108.38l0 9.28c0.96,2.97 0.7,13.46 4.9,25.86 5.22,15.4 12.45,26.81 23.08,37.98 5.15,5.42 10.54,9.39 16.78,13.74 5.29,3.69 13.33,7.45 20.48,10.04 6.77,2.46 7.85,-3.8 4.64,-5.78 -1.22,-0.75 -3.96,-1.52 -5.44,-2.1 -16.93,-6.69 -29.29,-17.02 -38.96,-29.61 -19.07,-24.81 -24.75,-61.84 -9.17,-94.59 3.86,-8.12 6.88,-11.92 11.99,-18.53 4.49,-5.8 9.73,-9.99 15.75,-14.76l9.39 -6.05c10.8,-5.55 21.74,-10.13 34.9,-11.05 -1.36,3.04 -8.7,8.06 -9.23,10.41 -0.5,2.25 0.86,3.67 2.2,4.13 3.11,1.07 6.1,-3.19 7.53,-4.64 1.77,-1.8 11.87,-11.57 12.33,-12.94 1.03,-3.08 -3.12,-5.94 -4.62,-7.42 -2.49,-2.47 -10.59,-10.7 -12.82,-12.34l-2.32 0c-1.16,1.12 -2.97,2.06 -2.08,4.67 0.65,1.92 8.7,8.25 10.03,10.88 -13.62,1.58 -24.78,4.48 -35.49,10.06 -4.97,2.59 -10.26,5.59 -14.25,8.73 -4.43,3.49 -8.52,6.85 -11.99,10.62 -3.55,3.85 -7.19,7.88 -10.4,12.58 -8.07,11.82 -13.97,26.23 -16.09,40.81 -0.32,2.23 -0.68,8.61 -1.13,10.04z"/>
   <path class="fil0" d="M111.66 226.05l2.25 0c5.31,-4.07 1.69,-5.78 -4.35,-11.98 -1.08,-1.11 -2.85,-2.23 -3.23,-3.66 24.24,-2.08 45.11,-12.85 60.98,-28.78 11.04,-11.08 20.29,-26.34 24.71,-42.73 0.82,-3.02 1.52,-6.06 2.06,-9.2 0.48,-2.77 0.55,-7.96 1.45,-9.98l0 -12.08c-0.59,-1.74 -1.2,-10.31 -1.75,-13.16 -3.93,-20.26 -15.14,-41.08 -30.19,-53.87 -4.21,-3.58 -7.58,-6.93 -12.97,-10 -8.65,-4.93 -10.46,-6.33 -20.54,-9.98 -6.55,-2.37 -7.93,3.87 -4.39,5.89 4.3,2.45 11.91,3.2 25.2,12.86l4.5 3.4c6.01,5.24 9.89,9.06 14.87,15.66 18.71,24.77 25.03,62.14 8.84,94.65 -3.59,7.22 -7.36,13.1 -12.14,18.4 -1.25,1.39 -2.18,2.66 -3.46,4.07 -1.32,1.46 -2.39,2.41 -3.78,3.77 -7.02,6.94 -18.84,14.06 -28.1,17.86 -6.91,2.83 -16.16,5.34 -24.47,6.05 1.8,-3.39 13.89,-10.62 7.9,-14.25 -3.41,-2.07 -6.34,2.34 -7.8,3.78 -2.23,2.21 -4.13,4.22 -6.36,6.45 -8.15,8.13 -8.92,7.2 -2.13,13.99 4.3,4.29 8.73,8.39 12.91,12.85z"/>
   <path class="fil0" d="M114.19 80.62c4.08,-3.46 11.12,-0.49 13.73,2.05 4.13,4.02 4.13,7.79 2.51,13.9 -1.42,-0.58 -15.25,-14.59 -16.24,-15.96zm2.78 -8.32c-4.83,0.79 -8.9,2.81 -11.13,5.66 -2.56,3.27 1.56,5.95 5.56,9.94l16.94 16.98c3.71,3.05 7.49,-3 8.68,-5.9 1.74,-4.24 2.2,-9.51 0.54,-14.26 -2.45,-7.01 -10.68,-14.03 -20.59,-12.41z"/>
  </g>
 </g>
</svg>
