<?xml version="1.0" encoding="UTF-8"?>
<!DOCTYPE svg PUBLIC "-//W3C//DTD SVG 1.1//EN" "http://www.w3.org/Graphics/SVG/1.1/DTD/svg11.dtd">
<!-- Creator: CorelDRAW 2018 (64 Bit Versão de avaliação) -->
<svg xmlns="http://www.w3.org/2000/svg" xml:space="preserve" width="9.0079mm" height="7.885mm" version="1.1" style="shape-rendering:geometricPrecision; text-rendering:geometricPrecision; image-rendering:optimizeQuality; fill-rule:evenodd; clip-rule:evenodd"
viewBox="0 0 60.86 53.28"
 xmlns:xlink="http://www.w3.org/1999/xlink">
 <defs>
  <style type="text/css">
   <![CDATA[
    .fil0 {fill:black}
   ]]>
  </style>
 </defs>
 <g id="Camada_x0020_1">
  <metadata id="CorelCorpID_0Corel-Layer"/>
  <g id="_2170208285824">
   <path class="fil0" d="M9 39.49l1.85 -4.47c-1.11,-1.04 -1.99,-1.49 -2.87,-2.4 -0.65,-0.67 -1.65,-2 -2.32,-3.03 -5.25,-8.02 -2.18,-16.31 4.56,-21.58 8.89,-6.94 23.47,-6.37 32.02,0.29 15.55,12.11 3.84,32.4 -17,31.41 -3.04,-0.14 -5.99,-0.79 -8.58,-1.75 -2.33,-0.86 -1.55,-0.73 -3.83,0.17 -1.04,0.41 -2.91,1.28 -3.82,1.37zm-8.05 -12.59c1.94,5.44 4.95,7.26 6.18,9.11l-3.71 8.92c2.16,-0.51 5.6,-2.03 7.7,-2.89 5,-2.05 3.06,-1.34 7.98,-0.15 6.16,1.48 12.83,1 18.48,-1.15 19.9,-7.58 18.5,-29.36 3.15,-37.05 -10.76,-5.39 -23.66,-5.08 -32.99,2.37 -1.01,0.81 -1.93,1.52 -2.79,2.56 -4.25,5.17 -6.3,11.86 -4.01,18.3z"/>
   <path class="fil0" d="M55.47 26.01c-0.03,2.53 -2.35,6.67 -3.49,8.23 -1.67,2.31 -3.44,3.96 -5.69,5.77 -5.54,4.47 -13.39,6.45 -20.42,6.46l0.49 0.65c0.02,-0.04 0.08,0.1 0.12,0.14 4.16,3.02 8.1,5.46 15.3,5.14 2.4,-0.11 7.82,-1.85 8.36,-1.81 1.11,0.09 5.65,2.26 7.31,2.68l-2.39 -5.88c5.51,-4.72 7.45,-10.66 4.28,-17.24 -0.89,-1.86 -2.03,-3.06 -3.19,-4.67 -0.07,0.05 -0.15,0.11 -0.2,0.15 -0.05,0.03 -0.14,0.1 -0.18,0.14 -0.05,0.04 -0.24,0.19 -0.3,0.25z"/>
   <path class="fil0" d="M14.73 15.37c-0.51,0.93 -0.58,1.14 -0.22,2.33 1.57,0.86 21.89,0.87 23.47,0.01 0.87,-2.9 -1.07,-2.61 -3.58,-2.6 -3.99,0.02 -17.67,-0.32 -19.66,0.26z"/>
   <path class="fil0" d="M14.45 26.19c1.51,0.77 15.68,0.78 17.21,0.02 0.95,-3.48 -2.63,-2.59 -8.48,-2.59 -6.17,0 -9.62,-0.9 -8.73,2.57z"/>
  </g>
 </g>
</svg>
