<?xml version="1.0" encoding="UTF-8"?>
<!DOCTYPE svg PUBLIC "-//W3C//DTD SVG 1.1//EN" "http://www.w3.org/Graphics/SVG/1.1/DTD/svg11.dtd">
<!-- Creator: CorelDRAW 2018 (64 Bit Versão de avaliação) -->
<svg xmlns="http://www.w3.org/2000/svg" xml:space="preserve" width="7.1115mm" height="7.1115mm" version="1.1" style="shape-rendering:geometricPrecision; text-rendering:geometricPrecision; image-rendering:optimizeQuality; fill-rule:evenodd; clip-rule:evenodd"
viewBox="0 0 44.61 44.61"
 xmlns:xlink="http://www.w3.org/1999/xlink">
 <defs>
  <style type="text/css">
   <![CDATA[
    .fil0 {fill:black}
   ]]>
  </style>
 </defs>
 <g id="Camada_x0020_1">
  <metadata id="CorelCorpID_0Corel-Layer"/>
  <g id="_2169123252576">
   <path class="fil0" d="M-0 8.06l0 28.48c0,1.17 0.41,2.4 0.79,3.19 0.64,1.31 1.17,1.95 2.21,2.86 1.3,1.14 3.21,2.01 5.06,2.01l15.93 0c0.66,0 1.23,-0.36 1.57,-0.72 0.77,-0.82 0.94,-1.97 0.32,-2.97 -0.87,-1.41 -2.58,-1.09 -4.18,-1.09 -2.25,0 -12.51,0.14 -13.84,-0.1 -0.91,-0.16 -1.73,-0.68 -2.2,-1.28 -0.56,-0.7 -0.88,-1.47 -0.88,-2.71l0 -26.88c0,-1.22 0.28,-1.88 0.79,-2.59 0.45,-0.62 1.27,-1.19 2.12,-1.37 2.64,-0.54 15.76,0.27 17.03,-0.29 2.46,-1.09 1.56,-4.61 -0.73,-4.61l-15.93 0c-1.17,0 -2.4,0.41 -3.19,0.79 -0.43,0.21 -0.87,0.44 -1.27,0.73 -0.82,0.59 -1.01,0.82 -1.6,1.49 -1.14,1.3 -2.01,3.21 -2.01,5.06z"/>
   <path class="fil0" d="M35.05 17.32c0,1.76 0.59,1.53 1.29,2.59l-18.12 0c-1.14,0 -1.93,-0.13 -2.69,0.3 -1.62,0.92 -1.58,3.23 -0.06,4.14 0.8,0.48 1.47,0.34 2.65,0.34l18.22 0c-0.71,1.06 -1.29,0.83 -1.29,2.59 0,1.22 1.05,2.19 2.59,2.19 1.21,0 2.85,-2 3.91,-3.06 0.61,-0.61 1.14,-1.14 1.74,-1.74 0.94,-0.94 1.32,-1.21 1.32,-2.56 0,-0.97 -0.8,-1.65 -1.32,-2.17 -0.62,-0.62 -1.17,-1.17 -1.79,-1.79 -1.32,-1.32 -2.57,-3.01 -4.06,-3.01 -0.71,0 -1.28,0.27 -1.67,0.62 -0.32,0.29 -0.72,0.99 -0.72,1.57z"/>
  </g>
 </g>
</svg>
