<?xml version="1.0" encoding="UTF-8"?>
<!DOCTYPE svg PUBLIC "-//W3C//DTD SVG 1.1//EN" "http://www.w3.org/Graphics/SVG/1.1/DTD/svg11.dtd">
<!-- Creator: CorelDRAW 2018 (64 Bit Versão de avaliação) -->
<svg xmlns="http://www.w3.org/2000/svg" xml:space="preserve" width="171.035mm" height="210mm" version="1.1" style="shape-rendering:geometricPrecision; text-rendering:geometricPrecision; image-rendering:optimizeQuality; fill-rule:evenodd; clip-rule:evenodd"
viewBox="0 0 17103.52 21000"
 xmlns:xlink="http://www.w3.org/1999/xlink">
 <defs>
  <style type="text/css">
   <![CDATA[
    .fil0 {fill:#373435}
   ]]>
  </style>
 </defs>
 <g id="Camada_x0020_1">
  <metadata id="CorelCorpID_0Corel-Layer"/>
  <path class="fil0" d="M8367.19 20999.99c-426.56,0 -853.13,-32.81 -1271.48,-98.44 -1878.52,-311.72 -3592.97,-1214.06 -4839.84,-2551.17 -1435.56,-1533.98 -2255.87,-3617.58 -2255.87,-5717.58 0,-2247.66 926.95,-4437.88 2534.77,-5996.47 278.91,-270.7 590.63,-533.2 910.55,-762.89 319.92,-229.69 656.25,-442.97 1008.98,-623.44 344.53,-180.47 713.67,-344.53 1082.81,-475.78 369.14,-131.25 754.69,-246.09 1140.23,-319.92 385.55,-82.03 787.5,-139.45 1173.05,-164.06l24.61 -0.01c65.63,-8.2 139.45,-8.2 205.08,-8.2l98.44 0c410.15,-8.2 828.51,16.41 1255.07,73.83 393.75,49.22 779.3,131.25 1164.84,237.89 377.34,106.64 754.69,237.89 1115.63,401.95 360.94,155.86 713.67,344.53 1050,549.61 336.33,205.08 664.45,442.97 967.97,697.27 147.66,123.05 287.11,246.09 418.36,377.34 1632.42,1566.8 2567.58,3765.22 2567.58,6029.29 0,1361.72 -336.33,2715.23 -959.77,3896.48l-24.61 41.02 -803.91 352.73 -418.36 -1066.41 -246.09 0.01 -418.36 1066.41 -1058.2 -459.38 -172.27 180.47 459.38 1050 -1066.41 418.36 0 246.09 1066.41 418.36 -57.42 123.05c-393.75,910.55 -393.75,910.55 -410.16,926.95l-24.61 16.41 -123.05 73.83c-1214.06,697.27 -2633.2,1066.41 -4093.35,1066.41l0 -0.01zm8.2 -16463.66l-287.11 0c-65.63,0 -123.05,8.2 -188.67,8.2l-24.61 0c-377.34,24.61 -762.89,73.83 -1140.23,155.86 -377.34,82.03 -746.48,180.47 -1107.42,311.72 -360.94,131.25 -713.67,287.11 -1050,459.38 -336.33,180.47 -664.45,385.55 -976.17,607.03 -311.72,221.48 -607.03,475.78 -877.73,738.28 -1558.59,1517.58 -2452.73,3633.97 -2452.73,5807.8 0,2034.38 795.7,4052.34 2182.03,5528.91 1205.86,1296.09 2871.09,2173.83 4683.98,2477.34 401.95,65.63 820.31,90.23 1230.47,90.23 1419.13,0 2789.05,-360.94 3970.3,-1041.8 24.61,-16.41 57.42,-32.81 82.03,-49.22 49.22,-114.84 213.28,-483.98 311.72,-721.88l-984.38 -385.55 0 -607.03 984.38 -385.55 -418.36 -967.97 82.03 -90.23 344.53 -344.53 967.97 418.36 385.55 -984.38 607.02 0.02 385.55 984.38 467.58 -205.08c598.83,-1140.23 910.55,-2428.13 910.55,-3732.42 0,-2190.23 -910.55,-4323.04 -2485.55,-5840.62 -131.25,-123.05 -270.7,-246.09 -410.16,-369.14 -295.31,-246.09 -607.03,-467.58 -935.16,-672.66 -328.13,-196.88 -664.45,-377.34 -1017.19,-533.2 -352.73,-155.86 -713.67,-287.11 -1082.81,-385.55 -369.14,-106.64 -746.48,-180.47 -1132.03,-229.69 -352.73,-16.41 -697.27,-41.02 -1025.38,-41.02l0 0.01z"/>
  <path class="fil0" d="M8367.19 20999.99c-1074.61,0 -2067.19,-885.94 -2813.67,-2485.55 -730.08,-1575 -1123.83,-3658.59 -1123.83,-5873.44 0,-2214.85 401.95,-4306.63 1123.83,-5873.43 738.28,-1607.81 1739.06,-2485.55 2813.67,-2485.55 1074.6,0 2067.18,885.95 2813.66,2485.56 730.08,1575 1123.83,3658.58 1123.83,5873.43 0,2214.85 -401.95,4306.64 -1123.83,5873.44 -746.48,1599.61 -1747.27,2485.55 -2813.66,2485.55l0 -0.01zm0 -16463.66c-2026.17,0 -3675,3633.98 -3675,8104.68 0,4470.71 1648.83,8104.69 3675,8104.69 2026.16,0 3674.99,-3633.98 3674.99,-8104.69 0,-4470.7 -1648.83,-8104.68 -3674.99,-8104.68z"/>
  <polygon class="fil0" points="131.25,12501.55 16594.91,12501.55 16594.91,12764.05 131.25,12764.05 "/>
  <path class="fil0" d="M8367.19 9285.93c-1189.45,0 -2354.3,-172.27 -3371.48,-508.59 -1197.66,-393.74 -2165.63,-1000.77 -2723.44,-1706.24l-65.63 -90.23 73.83 -82.03c1599.61,-1698.05 3757.03,-2625 6086.72,-2625 2329.68,0 4487.1,935.16 6086.71,2625l73.83 82.03 -65.63 90.23c-557.81,705.47 -1517.58,1312.5 -2723.44,1706.24 -1017.19,336.33 -2182.03,508.59 -3371.47,508.59zm-5816.02 -2288.66c533.21,631.64 1419.14,1173.04 2526.56,1533.97 992.58,328.13 2124.61,492.19 3289.45,492.19 1164.83,0 2296.87,-172.27 3289.44,-492.19 1099.22,-360.93 1993.36,-902.33 2526.56,-1533.97 -1542.19,-1591.41 -3601.17,-2460.94 -5816.01,-2460.94 -2223.05,0 -4282.03,869.53 -5816.02,2460.94l0.02 0zm5816.02 14002.72c-426.56,0 -853.13,-32.81 -1271.48,-98.44l-41.02 -8.2c-32.81,-8.2 -57.42,-8.2 -90.23,-16.41l-123.05 -24.61c0,0 -16.41,0 -24.61,-8.2 -49.22,-8.2 -106.64,-16.41 -155.86,-32.81 -49.22,-8.2 -98.44,-24.61 -147.66,-32.81l-8.2 0 -16.41 -8.2c-57.42,-16.41 -106.64,-24.61 -164.06,-41.02 -49.22,-8.2 -98.44,-24.61 -147.66,-41.02 -49.22,-16.41 -106.64,-32.81 -155.86,-41.02l-8.2 0.01c-16.41,-8.2 -32.81,-8.2 -49.22,-16.41 -41.02,-16.41 -98.44,-32.81 -147.66,-49.22 -16.41,0 -24.61,-8.2 -41.02,-16.41l-24.61 -8.2c-41.02,-16.41 -82.03,-24.61 -123.05,-41.02 -24.61,-8.2 -49.22,-16.41 -82.03,-24.61 -41.02,-16.41 -73.83,-24.61 -114.84,-41.02 -41.02,-16.41 -82.03,-32.81 -114.84,-49.22 -8.2,0 -24.61,-8.2 -32.81,-16.41 -49.22,-16.41 -98.44,-41.02 -147.66,-57.42l-8.2 0.01c-24.61,-8.2 -41.02,-16.41 -65.63,-24.61 -32.81,-16.41 -73.83,-32.81 -106.64,-49.22 -24.61,-8.2 -49.22,-24.61 -73.83,-32.81 -32.81,-16.41 -73.83,-32.81 -106.64,-49.22 -24.61,-16.41 -49.22,-24.61 -73.83,-41.02 -32.81,-16.41 -73.83,-32.81 -106.64,-49.22 -32.81,-16.41 -73.83,-41.02 -114.84,-57.42 -41.02,-24.61 -82.03,-41.02 -131.25,-65.63 -49.22,-24.61 -98.44,-49.22 -139.45,-82.03 -172.27,-98.44 -336.33,-205.08 -492.19,-303.52l-172.27 -123.05c-41.02,-32.81 -90.23,-65.63 -131.25,-98.44 -196.88,-147.66 -385.55,-295.31 -566.02,-451.17 -41.02,-32.81 -82.03,-65.63 -114.84,-106.64 -41.02,-41.02 -82.03,-82.03 -131.25,-123.05 -41.02,-41.02 -82.03,-73.83 -114.84,-114.84 -65.63,-65.63 -131.25,-131.25 -196.88,-205.08l-73.83 -82.03 65.63 -90.23c549.61,-705.47 1509.38,-1304.3 2698.83,-1698.05l24.61 -8.2c1017.19,-328.13 2182.03,-508.59 3371.48,-508.59 1181.24,0 2337.88,172.27 3355.07,500.39l24.61 8.2c336.33,114.84 656.25,237.89 943.36,377.34l41.02 24.61 352.73 803.91 -1066.41 418.36 0 246.09 1066.41 418.36 -451.17 1033.59 -41.02 41.02c-41.02,24.61 -82.03,49.22 -123.05,65.63 -49.22,32.81 -106.64,57.42 -164.06,90.23 -57.42,32.81 -123.05,65.63 -188.67,98.44 -65.63,32.81 -123.05,65.63 -188.67,90.23 -65.63,32.81 -131.25,57.42 -188.67,90.23 -57.42,24.61 -123.05,49.22 -180.47,73.83 -8.2,8.2 -24.61,8.2 -41.02,16.41 -57.42,24.61 -114.84,49.22 -172.27,65.63 -57.42,24.61 -114.84,41.02 -172.27,65.63l-73.83 24.61c-41.02,16.41 -90.23,32.81 -131.25,41.02 -16.41,8.2 -41.02,16.41 -57.42,16.41l-147.66 49.22c-8.2,0 -24.61,8.2 -41.02,16.41l-8.17 -0.01c-49.22,16.41 -106.64,32.81 -155.86,41.02 -16.41,8.2 -32.81,8.2 -57.42,16.41 -49.22,16.41 -98.44,24.61 -139.45,32.81 -24.61,8.2 -49.22,16.41 -73.83,16.41 -32.81,8.2 -65.63,16.41 -106.64,24.61 -32.81,8.2 -65.63,16.41 -106.64,24.61 -49.22,8.2 -106.64,24.61 -164.06,32.81 -8.2,0 -16.41,8.2 -32.81,8.2 -32.81,8.2 -82.03,16.41 -123.05,24.61 -24.61,8.2 -57.42,8.2 -82.03,16.41l-41.02 8.2c-418.36,82.03 -844.92,114.84 -1271.47,114.84l-0.01 0zm-1845.71 -475.78l16.41 0c49.22,16.41 106.64,24.61 155.86,32.81 57.42,8.2 106.64,24.61 164.06,32.81l16.41 0c49.22,8.2 90.23,16.41 131.25,24.61 32.81,8.2 57.42,8.2 90.23,16.41l41.02 8.2c812.11,123.05 1657.02,123.05 2469.13,0l41.02 -8.2c24.61,-8.2 57.42,-8.2 82.03,-16.41 49.22,-8.2 90.23,-16.41 123.05,-24.61l16.4 0c57.42,-8.2 106.64,-24.61 164.06,-32.81l98.44 -24.61c41.02,-8.2 73.83,-16.41 106.64,-24.61 24.61,-8.2 49.22,-8.2 65.63,-16.41 49.22,-8.2 90.23,-24.61 139.45,-32.81 16.41,-8.2 32.81,-8.2 49.22,-16.41 57.42,-16.41 106.64,-32.81 155.86,-41.02l8.2 0.01c8.2,0 24.61,-8.2 32.81,-8.2l147.66 -49.22c16.41,-8.2 32.81,-8.2 49.22,-16.41 41.02,-16.41 90.23,-32.81 131.25,-41.02 24.61,-8.2 49.22,-16.41 65.63,-24.61 57.42,-16.41 114.84,-41.02 164.06,-57.42 57.42,-24.61 114.84,-41.02 172.27,-65.63 8.2,-8.2 24.61,-8.2 32.81,-8.2 65.63,-24.61 123.05,-49.22 180.47,-73.83 65.63,-24.61 123.05,-57.42 188.67,-82.03 57.42,-32.81 123.05,-57.42 180.47,-90.23 57.42,-32.81 123.05,-65.63 180.47,-90.23 49.22,-24.61 98.44,-57.42 155.86,-82.03 24.61,-16.41 57.42,-32.81 82.03,-49.22l311.72 -721.88 -984.38 -385.55 0 -607.03 984.38 -385.55 -205.08 -467.58c-262.5,-123.05 -549.61,-229.69 -853.13,-336.33l-16.41 -8.2c-992.58,-328.13 -2132.81,-492.19 -3289.44,-492.19 -1148.44,0 -2272.27,164.06 -3264.84,483.98l-16.41 16.41 -32.81 0.01c-1091.02,360.94 -1976.95,894.14 -2501.95,1525.78l114.84 114.84 114.84 114.84c41.02,41.02 82.03,73.83 123.05,114.84 41.02,32.81 73.83,65.63 114.84,98.44 172.27,155.86 352.73,303.52 549.61,442.97 41.02,32.81 82.03,57.42 123.05,90.23 57.42,41.02 106.64,82.03 164.06,114.84 155.86,106.64 311.72,205.08 483.98,295.31 41.02,24.61 90.23,49.22 131.25,73.83 41.02,24.61 82.03,49.22 123.05,65.63 41.02,24.61 73.83,41.02 106.64,57.42l98.44 49.22c24.61,16.41 49.22,24.61 73.83,32.81 41.02,16.41 73.83,32.81 106.64,49.22 24.61,8.2 49.22,24.61 73.83,32.81 41.02,16.41 73.83,32.81 114.84,49.22 24.61,8.2 41.02,16.41 57.42,24.61l8.2 8.2c49.22,24.61 98.44,41.02 147.66,57.42 16.41,8.2 16.41,8.2 24.61,8.2 41.02,16.41 82.03,32.81 114.84,41.02 41.02,16.41 73.83,24.61 106.64,41.02 32.81,8.2 57.42,16.41 82.03,24.61 41.02,16.41 82.03,24.61 114.84,41.02l24.61 8.2c16.41,8.2 24.61,8.2 32.81,8.2l147.66 49.22c16.41,8.2 24.61,8.2 41.02,8.2l8.21 0.02c49.22,16.41 106.64,32.81 155.86,41.02 49.22,16.41 90.23,24.61 139.45,32.81 49.22,24.61 98.44,41.02 147.66,49.22l-0.01 0z"/>
  <path class="fil0" d="M2247.66 4495.31l0 -3748.83c0,-410.16 336.33,-746.48 746.48,-746.48l10573.82 0c410.16,0 746.48,336.33 746.48,746.48l0 1911.33c0,410.16 -336.33,746.48 -746.48,746.48l-10303.12 0.01 -1017.18 1091.01zm746.48 -4232.81c-262.5,0 -483.98,213.28 -483.98,483.98l0 3076.17 639.84 -689.06 10417.96 0c262.5,0 483.98,-213.28 483.98,-483.98l0 -1903.13c0,-262.5 -213.28,-483.98 -483.98,-483.98l-10573.82 0z"/>
  <path class="fil0" d="M5200.78 2378.91l-246.09 0 -516.8 -1353.52 246.09 -90.23 393.75 1033.59 352.73 -902.34 246.1 0 336.33 885.93 385.55 -1017.19 246.09 90.23 -500.39 1345.31 -246.09 8.2 -344.53 -894.14 -352.74 894.16zm2830.08 0l-246.09 0 -525 -1353.52 246.09 -90.23 401.95 1033.59 352.73 -902.34 246.09 0 336.33 885.94 377.34 -1017.19 246.09 90.23 -500.39 1345.31 -246.09 8.2 -344.52 -894.14 -344.53 894.15zm2821.87 0l-246.1 0 -516.8 -1353.52 246.09 -90.23 393.75 1033.59 352.73 -902.34 246.11 0 336.33 885.94 385.55 -1017.19 246.09 90.23 -508.59 1345.31 -246.09 8.2 -336.33 -894.14 -352.74 894.15z"/>
  <path class="fil0" d="M6989.06 2149.22m-180.47 0c0.01,99.65 80.83,180.47 180.48,180.47 99.65,0 180.47,-80.82 180.47,-180.47 0,-99.65 -80.82,-180.47 -180.47,-180.47 -99.65,0 -180.47,80.82 -180.47,180.47l-0.01 0z"/>
  <path class="fil0" d="M9778.12 2149.22m-180.47 0c0,99.65 80.82,180.47 180.47,180.47 99.65,0 180.47,-80.82 180.47,-180.47 0,-99.65 -80.82,-180.47 -180.47,-180.47 -99.65,0 -180.47,80.82 -180.47,180.47z"/>
  <path class="fil0" d="M14765.62 20958.97l-607.04 0 -385.55 -984.38 -976.17 426.56 -65.63 -82.03 -418.36 -410.16 418.36 -967.97 -984.38 -385.55 0 -607.03 984.38 -385.55 -418.36 -967.97 82.03 -90.23 344.53 -344.53 967.97 418.36 385.55 -984.38 607.04 0.02 385.55 984.38 967.97 -418.36 492.19 492.19 -426.56 967.97 984.38 385.55 0 607.03 -984.38 385.55 426.56 967.97 -90.23 82.03 -344.53 344.53 -967.97 -426.56 -377.34 992.58 -0.01 -0.02zm-426.57 -270.7l246.1 0 418.36 -1074.61 1058.2 459.38 180.47 -180.47 -459.38 -1050 1074.61 -418.36 0 -246.09 -1074.61 -418.36 459.38 -1050 -237.89 -237.89 -1058.2 459.38 -418.36 -1066.41 -246.1 -0.01 -418.36 1066.41 -1058.2 -459.38 -172.27 172.27 459.38 1050 -1066.41 418.36 0 246.09 1066.41 418.36 -459.38 1058.2 237.89 237.89 1050 -459.38 418.36 1074.61 0 0.01zm82.03 -1443.75c-336.33,0 -656.25,-180.47 -820.31,-467.58 -90.23,-147.66 -131.25,-311.72 -131.25,-483.98 0,-525 426.56,-959.77 959.77,-959.77 164.06,0 328.13,41.02 475.78,123.05 295.31,172.27 483.98,492.19 483.98,828.52 -8.2,533.2 -434.77,959.77 -967.97,959.77l0 -0.01zm0 -1648.83c-385.55,0 -697.27,311.72 -697.27,697.27 0,123.05 32.81,246.09 98.44,352.73 123.05,213.28 352.73,344.53 598.83,344.53 385.55,0 697.27,-311.72 697.27,-689.06 0,-246.09 -131.25,-475.78 -352.73,-598.83 -98.44,-73.83 -221.48,-106.64 -344.53,-106.64l-0.01 0z"/>
 </g>
</svg>
